<svg width="1024" height="1019" viewBox="0 0 1024 1019" fill="none" xmlns="http://www.w3.org/2000/svg">
<path d="M818.218 10.3831C829.55 8.07215 848.764 4.87481 860.95 3.32363C873.137 1.74079 891.306 0.284576 901.309 0.062979C915.933 -0.285246 919.921 0.727771 921.694 5.19138C922.865 8.23043 922.169 23.9005 920.111 40.0138C918.022 56.1272 912.546 78.92 907.893 90.6647C903.24 102.409 894.092 119.852 887.571 129.444C881.082 139.005 870.288 152.395 863.609 159.138C856.93 165.881 845.06 175.79 837.21 181.108C829.36 186.458 814.419 194.784 803.974 199.659C793.528 204.534 773.934 210.676 760.45 213.303C746.965 215.931 729.524 218.083 707.43 218.083L719.3 195.29C727.308 179.905 740.191 163.127 758.835 143.848C774.061 128.083 786.532 114.122 786.532 112.824C786.564 111.527 785.836 110.45 784.981 110.45C784.127 110.45 775.928 114.186 766.78 118.744C757.633 123.303 743.863 132.198 736.171 138.53C728.511 144.861 717.052 157.84 710.785 167.432C704.518 176.993 696.572 190.542 693.122 197.506C687.614 208.713 686.823 217.608 686.317 275.065C686 310.743 685.652 341.386 685.557 343.128C685.462 344.869 675.365 355.189 640.957 385.864L641.748 301.182C642.35 237.964 641.432 212.1 638.203 199.089C635.829 189.497 629.91 175.252 625.035 167.432C620.16 159.582 609.272 146.666 600.852 138.688C592.432 130.711 579.517 121.087 572.11 117.32C564.703 113.521 558.657 111.875 558.657 113.616C558.657 115.357 563.817 121.403 570.116 127.07C576.447 132.737 589.963 148.407 600.187 161.892C610.443 175.378 618.799 189.276 618.799 192.758C618.799 196.24 617.027 199.089 614.843 199.089C612.658 199.089 599.491 196.937 585.563 194.341C571.635 191.713 550.269 184.685 538.082 178.702C525.896 172.719 509.689 162.399 502.06 155.783C494.432 149.135 482.119 133.718 474.648 121.53C467.21 109.342 458.98 92.944 456.384 85.1248C453.788 77.2739 449.737 62.1103 447.394 51.3786C443.659 34.4106 443.723 31.2133 447.869 26.718C451.636 22.6026 458.726 21.5579 481.897 21.6846C498.009 21.7479 518.647 23.4257 527.795 25.3884C536.943 27.3195 553.656 33.3343 564.988 38.7159C578.916 45.3638 592.717 55.684 607.752 70.7842C623.452 86.5177 633.36 100.003 641.558 116.782C647.952 129.824 655.581 149.071 663.811 178.512L672.452 151.604C677.2 136.789 685.779 115.42 691.508 104.119C698.25 90.8863 710.025 75.6277 724.491 61.3822C740.761 45.3638 754.024 35.8035 772.32 26.9079C786.247 20.165 806.886 12.7257 818.218 10.3831Z" fill="#4C6EF5"/>
<path d="M185.143 213.651C198.185 209.283 216.734 204.313 226.293 202.603C235.853 200.894 263.645 199.912 288.018 200.45C321.223 201.147 338.696 203.11 357.656 208.238C371.584 212.005 394.374 220.679 408.302 227.485C422.23 234.26 446.445 249.613 462.113 261.58C477.782 273.546 498.99 293.237 509.246 305.329C519.502 317.422 534.79 337.968 543.179 351.042C556.315 371.429 557.834 375.449 554.131 379.533C551.757 382.129 541.121 390.328 511.177 411.19L481.707 377.159C465.532 358.449 442.361 335.657 430.27 326.539C418.178 317.391 399.028 305.108 387.727 299.22C376.427 293.331 357.878 285.227 346.577 281.207C329.104 274.971 319.545 273.863 283.27 273.673C247.47 273.514 236.929 274.622 218.38 280.542C206.193 284.404 187.043 292.952 175.837 299.536C164.632 306.089 145.766 321.094 133.896 332.839C122.057 344.584 107.465 363.103 101.546 373.993C95.595 384.883 87.6182 403.75 83.8198 415.938C78.4387 433.254 76.9509 445.696 77.0459 472.92C77.1409 494.225 79.1667 515.119 82.2371 526.737C84.991 537.184 91.2268 554.278 96.0381 564.725C100.881 575.172 111.675 594.388 120.032 607.462C129.939 622.91 152.572 648.426 184.732 680.399C211.954 707.466 255.699 747.353 281.94 769.038C308.181 790.723 354.997 828.426 385.986 852.802C416.944 877.178 452.079 905.32 464.076 915.324C478.352 927.259 487.341 932.704 490.19 931.152C492.596 929.854 517.666 910.955 545.964 889.207C574.231 867.427 616.077 834.663 638.963 816.397C661.88 798.099 699.105 767.329 721.706 748.018C744.338 728.676 776.182 698.76 792.483 681.539C808.785 664.286 830.689 638.802 841.167 624.873C851.612 610.944 865.477 588.848 871.997 575.805C878.486 562.731 885.64 546.364 887.856 539.4C890.103 532.435 892.794 516.765 895.769 482.481L924.258 459.561C939.926 446.93 953.822 436.61 955.12 436.578C956.418 436.547 959.836 447.563 962.685 461.049C966.326 478.334 967.275 492.579 965.851 509.326C964.743 522.368 961.071 543.04 957.684 555.228C954.329 567.416 948.093 585.207 943.851 594.799C939.61 604.359 925.65 627.88 912.799 647.033C895.358 673.086 876.714 694.676 838.824 732.791C810.937 760.776 767.508 801.265 742.249 822.728C716.989 844.191 681.632 873.284 663.653 887.371C645.642 901.427 599.364 936.819 560.778 965.975C522.16 995.131 488.829 1019 486.645 1019C484.461 1019 467.748 1007.95 449.515 994.466C431.251 980.98 398.838 956.51 377.503 940.08C356.137 923.65 311.6 888.574 278.522 862.109C245.444 835.676 200.559 798.384 178.813 779.263C157.035 760.142 125.001 729.689 107.56 711.581C90.1189 693.505 69.2591 669.446 61.1557 658.113C53.084 646.779 40.7391 626.836 33.7753 613.793C26.8114 600.719 16.3974 576.501 10.6047 559.977C0.253978 530.472 0.0640556 528.858 0.000748169 476.086C-0.0309055 429.139 0.918706 419.041 7.2811 396.944C11.3328 383.015 20.5757 360.381 27.856 346.673C35.168 332.934 48.9691 312.357 58.5285 300.929C68.0879 289.501 85.2126 272.66 96.5129 263.479C107.813 254.33 127.059 241.161 139.245 234.228C151.432 227.295 172.07 218.02 185.143 213.651Z" fill="#4C6EF5"/>
<path d="M927.423 222.072C932.646 218.368 942.617 213.968 949.581 212.29C956.544 210.612 966.167 209.093 970.947 208.903C975.727 208.745 986.299 210.359 994.434 212.543C1004.25 215.171 1011.69 219.698 1016.5 225.997C1020.52 231.221 1023.87 237.616 1024 240.243C1024.13 242.839 1015.96 255.217 1005.89 267.721C995.827 280.226 969.934 310.838 948.378 335.783L941.334 343.934C919.039 369.734 885.011 409.111 861.393 436.515C835.121 466.969 796.503 511.162 775.549 534.714C754.625 558.267 700.308 619.523 654.853 670.839C609.398 722.154 565.589 770.209 557.518 777.617C549.446 785.025 537.481 792.496 530.96 794.237C524.44 795.978 514.12 796.484 508.011 795.408C501.902 794.3 492.659 790.881 487.436 787.81C482.214 784.74 464.424 767.518 447.869 749.537C431.314 731.588 409.948 708.289 400.389 697.779C390.829 687.237 360.188 652.541 332.333 620.631C304.478 588.689 276.718 555.45 270.608 546.712C261.366 533.511 259.53 528.098 259.53 514.296C259.53 501.412 261.65 494.32 269.121 482.164C275.736 471.464 283.65 463.898 294.444 457.947C304.826 452.28 315.019 449.273 324.42 449.209C332.27 449.146 345.058 450.982 352.908 453.262C360.758 455.573 373.546 461.809 381.396 467.127C389.247 472.446 423.053 501.918 456.574 532.625C490.095 563.332 518.837 588.119 520.483 587.676C522.129 587.233 535.993 575.393 551.345 561.306C566.666 547.251 590.628 525.946 604.555 513.948C618.483 501.95 651.972 472.192 678.941 447.817C705.91 423.409 746.522 386.434 769.154 365.636C791.787 344.837 820.972 317.707 834.045 305.361C847.086 293.015 871.301 270.729 887.856 255.85C904.411 241.003 922.2 225.776 927.423 222.072Z" fill="#4C6EF5"/>
<path d="M813.47 764.163L833.95 742.795C845.218 731.05 854.841 721.426 855.316 721.426C855.791 721.426 856.202 721.774 856.234 722.218C856.234 722.661 846.643 732.253 813.47 764.163Z" fill="#5BAE7E" fill-opacity="0.56"/>
</svg>
